<svg width="28" height="27" viewBox="0 0 28 27" fill="none" xmlns="http://www.w3.org/2000/svg">
<path d="M8.75 18.75V16.25H11.4688C11.3646 16.6667 11.2971 17.0833 11.2662 17.5C11.2354 17.9167 11.2404 18.3333 11.2812 18.75H8.75ZM8.75 25C7.02083 25 5.54708 24.3904 4.32875 23.1713C3.11042 21.9521 2.50083 20.4783 2.5 18.75V7.5H0V0H17.5V7.5H15V11.2812C14.5 11.5938 14.0417 11.9583 13.625 12.375C13.2083 12.7917 12.8438 13.25 12.5312 13.75H8.75V11.25H12.5V7.5H5V18.75C5 19.7917 5.36458 20.6771 6.09375 21.4062C6.82292 22.1354 7.70833 22.5 8.75 22.5C9.375 22.5 9.94292 22.3646 10.4537 22.0938C10.9646 21.8229 11.3967 21.4479 11.75 20.9688C11.9167 21.3854 12.1042 21.7812 12.3125 22.1562C12.5208 22.5312 12.7708 22.8958 13.0625 23.25C12.5 23.7917 11.8542 24.2188 11.125 24.5312C10.3958 24.8438 9.60417 25 8.75 25ZM19.375 21.25C20.25 21.25 20.9896 20.9479 21.5938 20.3438C22.1979 19.7396 22.5 19 22.5 18.125C22.5 17.25 22.1979 16.5104 21.5938 15.9062C20.9896 15.3021 20.25 15 19.375 15C18.5 15 17.7604 15.3021 17.1562 15.9062C16.5521 16.5104 16.25 17.25 16.25 18.125C16.25 19 16.5521 19.7396 17.1562 20.3438C17.7604 20.9479 18.5 21.25 19.375 21.25ZM25.75 26.25L22.375 22.875C21.9167 23.1667 21.4375 23.3854 20.9375 23.5312C20.4375 23.6771 19.9167 23.75 19.375 23.75C17.8125 23.75 16.4846 23.2033 15.3912 22.11C14.2979 21.0167 13.7508 19.6883 13.75 18.125C13.75 16.5625 14.2971 15.2346 15.3912 14.1412C16.4854 13.0479 17.8133 12.5008 19.375 12.5C20.9375 12.5 22.2658 13.0471 23.36 14.1412C24.4542 15.2354 25.0008 16.5633 25 18.125C25 18.6667 24.9271 19.1875 24.7812 19.6875C24.6354 20.1875 24.4167 20.6667 24.125 21.125L27.5 24.5L25.75 26.25Z" fill="#5FBE7D"/>
</svg>
